<svg width="267" height="31" viewBox="0 0 267 31" fill="none" xmlns="http://www.w3.org/2000/svg">
<path d="M79.9351 30.8743V0H92.4735C98.8551 0 103.844 4.08961 103.844 9.88696C103.844 15.6843 98.8551 19.7739 92.4735 19.7739H83.4404V30.8743H79.9351ZM83.4404 16.4483H91.8443C96.8777 16.4483 100.293 14.0215 100.293 9.88696C100.293 5.75241 96.8777 3.32561 91.8443 3.32561H83.4404V16.4483Z" fill="#D9C48D"/>
<path d="M115.149 30.8743V0H127.687C134.069 0 139.057 4.08961 139.057 9.88696C139.057 15.6843 134.069 19.7739 127.687 19.7739H118.654V30.8743H115.149ZM118.654 16.4483H127.058C132.091 16.4483 135.507 14.0215 135.507 9.88696C135.507 5.75241 132.091 3.32561 127.058 3.32561H118.654V16.4483Z" fill="#D9C48D"/>
<path d="M153.373 27.5487H170.226V30.8743H149.868V0H153.373V27.5487Z" fill="#D9C48D"/>
<path d="M181.582 30.8743V0H185.087V30.8743H181.582Z" fill="#D9C48D"/>
<path d="M199.168 30.8743V0H202.674L221.819 25.1219V0H225.324V30.8743H221.819L202.674 5.75241V30.8743H199.168Z" fill="#D9C48D"/>
<path d="M240.043 30.8743V0H243.549L262.694 25.1219V0H266.199V30.8743H262.694L243.549 5.75241V30.8743H240.043Z" fill="#D9C48D"/>
<path d="M15.8222 31C7.2818 31 0 23.8931 0 15.4782C0 7.06329 7.2818 0 15.8222 0C20.0924 0 24.0479 1.74402 26.9247 4.57806L24.5424 6.93249C22.2949 4.62166 19.1934 3.13924 15.8222 3.13924C9.16967 3.13924 3.551 8.80731 3.551 15.4782C3.551 22.1927 9.16967 27.8608 15.8222 27.8608C19.1934 27.8608 22.2949 26.3783 24.5424 24.0675L26.9247 26.4219C24.0479 29.2124 20.0924 31 15.8222 31Z" fill="#D9C48D"/>
<path d="M52.0082 31C43.4678 31 36.186 23.8931 36.186 15.4782C36.186 7.06329 43.4678 0 52.0082 0C60.5935 0 67.7854 7.06329 67.7854 15.4782C67.7854 23.8931 60.5935 31 52.0082 31ZM52.0082 27.8608C58.6607 27.8608 64.2344 22.1927 64.2344 15.4782C64.2344 8.80731 58.6607 3.13924 52.0082 3.13924C45.3557 3.13924 39.737 8.80731 39.737 15.4782C39.737 22.1927 45.3557 27.8608 52.0082 27.8608Z" fill="#D9C48D"/>
</svg>
